<?xml version="1.0" standalone="no"?>
<!DOCTYPE svg PUBLIC "-//W3C//DTD SVG 20010904//EN"
 "http://www.w3.org/TR/2001/REC-SVG-20010904/DTD/svg10.dtd">
<svg version="1.0" xmlns="http://www.w3.org/2000/svg"
 width="1280.000000pt" height="1110.000000pt" viewBox="0 0 1280.000000 1110.000000"
 preserveAspectRatio="xMidYMid meet">
<metadata>
Created by potrace 1.15, written by Peter Selinger 2001-2017
</metadata>
<g transform="translate(0.000000,1110.000000) scale(0.100000,-0.100000)"
fill="#000000" stroke="none">
<path d="M7830 11085 c-352 -38 -545 -133 -1065 -520 -433 -322 -637 -430
-910 -480 -54 -10 -164 -45 -275 -87 -388 -149 -835 -286 -1750 -538 -842
-232 -1316 -386 -1726 -560 -237 -102 -644 -492 -1000 -962 -120 -157 -297
-413 -525 -758 -118 -179 -257 -386 -309 -460 -72 -104 -101 -156 -127 -229
-148 -412 -181 -906 -93 -1403 58 -328 194 -756 368 -1158 145 -336 398 -840
497 -990 156 -236 357 -416 659 -590 224 -129 430 -214 1003 -414 199 -70 413
-147 475 -172 328 -131 1943 -709 2408 -862 820 -270 1525 -459 2190 -586 180
-34 780 -130 1010 -161 774 -104 1491 -155 2193 -155 277 0 317 6 507 77 737
275 1282 986 1416 1845 25 156 25 481 1 635 -44 280 -144 543 -288 759 -52 78
-98 202 -149 403 -79 315 -111 683 -91 1051 20 358 56 617 186 1355 152 865
178 1064 191 1515 12 412 -31 729 -147 1074 -190 562 -543 975 -1008 1180
-187 82 -365 112 -861 146 -451 31 -610 53 -790 109 -220 67 -364 148 -509
286 -177 168 -544 430 -733 523 -258 126 -452 160 -748 127z m335 -454 c161
-33 317 -107 493 -234 46 -33 186 -145 310 -249 345 -287 505 -392 690 -452
131 -42 178 -48 391 -47 1059 5 1666 -259 1907 -829 234 -553 274 -1185 133
-2110 -11 -74 -49 -308 -84 -520 -118 -707 -137 -870 -155 -1280 -10 -243 -28
-357 -85 -528 -122 -367 -378 -688 -670 -839 -151 -78 -347 -121 -493 -107
-103 9 -317 53 -417 86 -497 162 -910 575 -1029 1029 -14 51 -30 141 -36 197
-11 105 -10 130 15 327 7 61 19 153 25 205 23 193 85 407 254 875 157 432 203
622 213 873 l6 152 -74 0 c-282 0 -452 -170 -550 -549 -28 -108 -41 -178 -103
-566 -25 -152 -39 -217 -85 -381 -10 -39 -33 -153 -50 -255 -81 -491 -121
-981 -121 -1502 l0 -250 -45 -95 c-64 -136 -144 -250 -254 -364 -202 -211
-425 -341 -708 -415 -99 -25 -123 -28 -283 -27 -157 0 -185 3 -274 27 -55 15
-142 47 -194 73 -78 38 -107 58 -162 117 -336 357 -513 822 -561 1472 -15 213
-6 724 21 1065 11 146 17 284 14 307 -8 55 12 234 37 330 38 144 90 266 258
603 92 184 182 373 200 420 71 184 106 381 94 531 -8 108 -7 107 -95 86 -117
-28 -227 -89 -318 -174 -190 -178 -271 -372 -400 -953 -39 -173 -83 -360 -100
-415 -37 -126 -63 -243 -94 -426 -139 -811 -85 -1668 153 -2444 88 -289 54
-237 321 -493 441 -423 597 -609 730 -869 96 -186 135 -351 134 -564 l-1 -137
-47 -70 c-127 -192 -315 -281 -561 -268 -219 12 -417 74 -808 252 -66 30 -250
101 -410 158 -161 58 -490 180 -732 271 -1364 516 -1839 683 -2405 846 -182
52 -186 54 -266 115 -479 370 -685 1013 -659 2060 8 305 2 353 -48 429 -86
131 -257 59 -499 -210 -107 -118 -93 -121 -151 35 -74 200 -114 469 -103 685
31 551 251 1062 661 1530 34 39 121 156 195 260 460 656 729 934 1101 1140
220 122 576 229 1224 370 687 149 952 225 1235 355 144 66 193 83 630 219 615
191 823 267 1115 411 274 134 454 255 675 451 178 157 306 232 454 264 94 21
333 19 441 -4z m1121 -6976 c28 -14 59 -40 74 -62 35 -51 36 -176 3 -243 -58
-116 -175 -119 -252 -6 -42 61 -69 191 -52 254 19 72 33 82 111 82 50 0 78 -6
116 -25z m2633 -42 c13 -38 68 -180 121 -318 185 -473 247 -665 291 -905 18
-100 23 -160 23 -300 0 -257 -29 -370 -170 -667 -156 -330 -378 -576 -695
-769 -404 -246 -900 -327 -1324 -216 -63 16 -76 17 -135 4 -149 -31 -284 7
-341 97 -50 78 -63 134 -62 266 1 198 65 452 170 675 43 91 45 98 39 161 -18
205 -168 473 -377 674 -130 125 -255 206 -368 239 -72 21 -174 20 -235 -1 -55
-20 -133 -89 -161 -142 l-17 -34 46 -67 c25 -37 108 -133 184 -214 322 -344
409 -454 448 -567 27 -78 24 -180 -6 -244 -35 -72 -121 -152 -246 -229 -249
-153 -379 -196 -619 -203 -270 -9 -502 54 -695 188 -247 172 -374 445 -326
701 109 580 642 1010 1359 1099 126 15 455 6 552 -15 100 -22 526 -32 725 -17
534 41 962 171 1303 398 157 104 330 267 434 409 26 35 49 64 53 64 3 0 16
-30 29 -67z"/>
<path d="M3729 6758 c-37 -59 -147 -291 -180 -378 -142 -382 -198 -659 -294
-1475 -64 -545 -122 -905 -166 -1045 -17 -55 -23 -413 -9 -542 60 -547 308
-1000 673 -1232 90 -58 402 -208 513 -248 128 -46 317 -93 464 -115 158 -23
463 -23 625 1 337 49 647 170 900 351 94 67 285 239 285 256 0 15 -177 95
-238 108 -75 16 -228 14 -313 -4 -112 -24 -225 -65 -474 -173 -360 -156 -484
-192 -658 -192 -127 0 -218 25 -380 104 -225 109 -391 229 -552 398 -211 221
-343 460 -406 737 -26 111 -35 319 -20 436 24 179 105 651 206 1200 151 819
207 1152 260 1557 16 118 16 128 0 162 -33 70 -119 126 -193 126 -14 0 -29
-11 -43 -32z"/>
</g>
</svg>
